solid OpenSCAD_Model
  facet normal -1 0 0
    outer loop
      vertex -9 0 8
      vertex -9 0.695288 7.88988
      vertex -9 -0.695288 7.88988
    endloop
  endfacet
  facet normal -1 0 0
    outer loop
      vertex -9 -0.695288 7.88988
      vertex -9 0.695288 7.88988
      vertex -9 1.32252 7.57029
    endloop
  endfacet
  facet normal -1 0 0
    outer loop
      vertex -9 -0.695288 7.88988
      vertex -9 1.32252 7.57029
      vertex -9 1.82029 7.07252
    endloop
  endfacet
  facet normal -1 0 0
    outer loop
      vertex -9 -0.695288 7.88988
      vertex -9 1.82029 7.07252
      vertex -9 2.13988 6.44529
    endloop
  endfacet
  facet normal -1 0 0
    outer loop
      vertex -9 -0.695288 7.88988
      vertex -9 2.13988 6.44529
      vertex -9 2.25 5.75
    endloop
  endfacet
  facet normal -1 -1.66465e-015 -2.2912e-015
    outer loop
      vertex -9 -0.695288 7.88988
      vertex -9 2.25 5.75
      vertex -9 2.13988 5.05471
    endloop
  endfacet
  facet normal -1 4.15061e-016 -2.11484e-016
    outer loop
      vertex -9 -0.695288 7.88988
      vertex -9 2.13988 5.05471
      vertex -9 1.82029 4.42748
    endloop
  endfacet
  facet normal -1 2.97151e-016 -2.97151e-016
    outer loop
      vertex -9 -0.695288 7.88988
      vertex -9 1.82029 4.42748
      vertex -9 1.32252 3.92971
    endloop
  endfacet
  facet normal -1 1.81445e-016 -3.56106e-016
    outer loop
      vertex -9 -0.695288 7.88988
      vertex -9 1.32252 3.92971
      vertex -9 0.695288 3.61012
    endloop
  endfacet
  facet normal -1 6.25217e-017 -3.94746e-016
    outer loop
      vertex -9 -0.695288 7.88988
      vertex -9 0.695288 3.61012
      vertex -9 0 3.5
    endloop
  endfacet
  facet normal -1 -6.57392e-017 -4.15061e-016
    outer loop
      vertex -9 -0.695288 7.88988
      vertex -9 0 3.5
      vertex -9 -0.695288 3.61012
    endloop
  endfacet
  facet normal -1 -2.11484e-016 -4.15061e-016
    outer loop
      vertex -9 -0.695288 7.88988
      vertex -9 -0.695288 3.61012
      vertex -9 -1.32252 3.92971
    endloop
  endfacet
  facet normal -1 -3.87226e-016 -3.87226e-016
    outer loop
      vertex -9 -0.695288 7.88988
      vertex -9 -1.32252 3.92971
      vertex -9 -1.82029 4.42748
    endloop
  endfacet
  facet normal -1 -6.14831e-016 -3.13272e-016
    outer loop
      vertex -9 -0.695288 7.88988
      vertex -9 -1.82029 4.42748
      vertex -9 -2.13988 5.05471
    endloop
  endfacet
  facet normal -1 2.88707e-015 -2.09758e-015
    outer loop
      vertex -9 -0.695288 7.88988
      vertex -9 -2.13988 5.05471
      vertex -9 -2.25 5.75
    endloop
  endfacet
  facet normal -1 0 0
    outer loop
      vertex -9 -0.695288 7.88988
      vertex -9 -2.25 5.75
      vertex -9 -2.13988 6.44529
    endloop
  endfacet
  facet normal -1 0 0
    outer loop
      vertex -9 -0.695288 7.88988
      vertex -9 -2.13988 6.44529
      vertex -9 -1.82029 7.07252
    endloop
  endfacet
  facet normal -1 0 0
    outer loop
      vertex -9 -0.695288 7.88988
      vertex -9 -1.82029 7.07252
      vertex -9 -1.32252 7.57029
    endloop
  endfacet
  facet normal -0.0274255 0.156376 0.987317
    outer loop
      vertex -9 0.695288 7.88988
      vertex -9 0 8
      vertex -4.21606e-016 0.772542 8.12764
    endloop
  endfacet
  facet normal -0.0274255 0.156376 0.987317
    outer loop
      vertex -4.21606e-016 0.772542 8.12764
      vertex -9 0 8
      vertex -4.43303e-016 0 8.25
    endloop
  endfacet
  facet normal -0.0274255 -0.156376 0.987317
    outer loop
      vertex -4.43303e-016 0 8.25
      vertex -9 0 8
      vertex -9 -0.695288 7.88988
    endloop
  endfacet
  facet normal -0.0274255 -0.156376 0.987317
    outer loop
      vertex -4.43303e-016 0 8.25
      vertex -9 -0.695288 7.88988
      vertex -4.21606e-016 -0.772542 8.12764
    endloop
  endfacet
  facet normal -0.0274254 -0.45382 0.890671
    outer loop
      vertex -4.21606e-016 -0.772542 8.12764
      vertex -9 -0.695288 7.88988
      vertex -9 -1.32252 7.57029
    endloop
  endfacet
  facet normal -0.0274254 -0.45382 0.890671
    outer loop
      vertex -4.21606e-016 -0.772542 8.12764
      vertex -9 -1.32252 7.57029
      vertex -3.5864e-016 -1.46946 7.77254
    endloop
  endfacet
  facet normal -0.0274254 -0.706841 0.706841
    outer loop
      vertex -3.5864e-016 -1.46946 7.77254
      vertex -9 -1.32252 7.57029
      vertex -9 -1.82029 7.07252
    endloop
  endfacet
  facet normal -0.0274254 -0.706841 0.706841
    outer loop
      vertex -2.60567e-016 -2.02254 7.21946
      vertex -3.5864e-016 -1.46946 7.77254
      vertex -9 -1.82029 7.07252
    endloop
  endfacet
  facet normal -0.0274254 -0.890671 0.45382
    outer loop
      vertex -2.60567e-016 -2.02254 7.21946
      vertex -9 -1.82029 7.07252
      vertex -9 -2.13988 6.44529
    endloop
  endfacet
  facet normal -0.0274254 -0.890671 0.45382
    outer loop
      vertex -2.60567e-016 -2.02254 7.21946
      vertex -9 -2.13988 6.44529
      vertex -1.36988e-016 -2.37764 6.52254
    endloop
  endfacet
  facet normal -0.0274255 -0.987317 0.156376
    outer loop
      vertex -1.36988e-016 -2.37764 6.52254
      vertex -9 -2.13988 6.44529
      vertex -9 -2.25 5.75
    endloop
  endfacet
  facet normal -0.0274255 -0.987317 0.156376
    outer loop
      vertex -1.36988e-016 -2.37764 6.52254
      vertex -9 -2.25 5.75
      vertex 0 -2.5 5.75
    endloop
  endfacet
  facet normal -0.0274255 -0.987317 -0.156376
    outer loop
      vertex 0 -2.5 5.75
      vertex -9 -2.25 5.75
      vertex -9 -2.13988 5.05471
    endloop
  endfacet
  facet normal -0.0274255 -0.987317 -0.156376
    outer loop
      vertex 0 -2.5 5.75
      vertex -9 -2.13988 5.05471
      vertex 0 -2.37764 4.97746
    endloop
  endfacet
  facet normal -0.0274254 -0.890671 -0.45382
    outer loop
      vertex 0 -2.37764 4.97746
      vertex -9 -2.13988 5.05471
      vertex -9 -1.82029 4.42748
    endloop
  endfacet
  facet normal -0.0274254 -0.890671 -0.45382
    outer loop
      vertex 0 -2.37764 4.97746
      vertex -9 -1.82029 4.42748
      vertex 0 -2.02254 4.28054
    endloop
  endfacet
  facet normal -0.0274254 -0.706841 -0.706841
    outer loop
      vertex -9 -1.82029 4.42748
      vertex -9 -1.32252 3.92971
      vertex 0 -2.02254 4.28054
    endloop
  endfacet
  facet normal -0.0274254 -0.706841 -0.706841
    outer loop
      vertex 0 -2.02254 4.28054
      vertex -9 -1.32252 3.92971
      vertex 0 -1.46946 3.72746
    endloop
  endfacet
  facet normal -0.0274254 -0.45382 -0.890671
    outer loop
      vertex -9 -1.32252 3.92971
      vertex -9 -0.695288 3.61012
      vertex 0 -1.46946 3.72746
    endloop
  endfacet
  facet normal -0.0274254 -0.45382 -0.890671
    outer loop
      vertex 0 -1.46946 3.72746
      vertex -9 -0.695288 3.61012
      vertex 0 -0.772542 3.37236
    endloop
  endfacet
  facet normal -0.0274255 -0.156376 -0.987317
    outer loop
      vertex -9 -0.695288 3.61012
      vertex -9 0 3.5
      vertex 0 -0.772542 3.37236
    endloop
  endfacet
  facet normal -0.0274255 -0.156376 -0.987317
    outer loop
      vertex 0 -0.772542 3.37236
      vertex -9 0 3.5
      vertex 0 0 3.25
    endloop
  endfacet
  facet normal -0.0274255 0.156376 -0.987317
    outer loop
      vertex -9 0.695288 3.61012
      vertex 0 3.4247e-017 3.25
      vertex -9 0 3.5
    endloop
  endfacet
  facet normal -1.05701e-019 0 -3.80523e-018
    outer loop
      vertex -9 0 3.5
      vertex 0 3.4247e-017 3.25
      vertex 0 0 3.25
    endloop
  endfacet
  facet normal -0.0274255 0.156376 -0.987317
    outer loop
      vertex 0 3.4247e-017 3.25
      vertex -9 0.695288 3.61012
      vertex 0 0.772542 3.37236
    endloop
  endfacet
  facet normal -0.0274254 0.45382 -0.890671
    outer loop
      vertex -9 1.32252 3.92971
      vertex 0 0.772542 3.37236
      vertex -9 0.695288 3.61012
    endloop
  endfacet
  facet normal -0.0274254 0.45382 -0.890671
    outer loop
      vertex 0 0.772542 3.37236
      vertex -9 1.32252 3.92971
      vertex 0 1.46946 3.72746
    endloop
  endfacet
  facet normal -0.0274254 0.706841 -0.706841
    outer loop
      vertex -9 1.82029 4.42748
      vertex 0 2.02254 4.28054
      vertex -9 1.32252 3.92971
    endloop
  endfacet
  facet normal -0.0274254 0.706841 -0.706841
    outer loop
      vertex -9 1.32252 3.92971
      vertex 0 2.02254 4.28054
      vertex 0 1.46946 3.72746
    endloop
  endfacet
  facet normal -0.0274254 0.890671 -0.45382
    outer loop
      vertex -9 2.13988 5.05471
      vertex 0 2.02254 4.28054
      vertex -9 1.82029 4.42748
    endloop
  endfacet
  facet normal -0.0274254 0.890671 -0.45382
    outer loop
      vertex 0 2.02254 4.28054
      vertex -9 2.13988 5.05471
      vertex 0 2.37764 4.97746
    endloop
  endfacet
  facet normal -0.0274255 0.987317 -0.156376
    outer loop
      vertex -9 2.25 5.75
      vertex 0 2.37764 4.97746
      vertex -9 2.13988 5.05471
    endloop
  endfacet
  facet normal -0.0274255 0.987317 -0.156376
    outer loop
      vertex 0 2.37764 4.97746
      vertex -9 2.25 5.75
      vertex 0 2.5 5.75
    endloop
  endfacet
  facet normal -0.0274255 0.987317 0.156376
    outer loop
      vertex -9 2.25 5.75
      vertex -9 2.13988 6.44529
      vertex 0 2.5 5.75
    endloop
  endfacet
  facet normal -0.0274255 0.987317 0.156376
    outer loop
      vertex 0 2.5 5.75
      vertex -9 2.13988 6.44529
      vertex -1.36988e-016 2.37764 6.52254
    endloop
  endfacet
  facet normal -0.0274254 0.890671 0.45382
    outer loop
      vertex -9 2.13988 6.44529
      vertex -9 1.82029 7.07252
      vertex -1.36988e-016 2.37764 6.52254
    endloop
  endfacet
  facet normal -0.0274254 0.890671 0.45382
    outer loop
      vertex -1.36988e-016 2.37764 6.52254
      vertex -9 1.82029 7.07252
      vertex -2.60567e-016 2.02254 7.21946
    endloop
  endfacet
  facet normal -0.0274254 0.706841 0.706841
    outer loop
      vertex -9 1.32252 7.57029
      vertex -3.5864e-016 1.46946 7.77254
      vertex -9 1.82029 7.07252
    endloop
  endfacet
  facet normal -0.0274254 0.706841 0.706841
    outer loop
      vertex -9 1.82029 7.07252
      vertex -3.5864e-016 1.46946 7.77254
      vertex -2.60567e-016 2.02254 7.21946
    endloop
  endfacet
  facet normal -0.0274254 0.45382 0.890671
    outer loop
      vertex -9 1.32252 7.57029
      vertex -9 0.695288 7.88988
      vertex -3.5864e-016 1.46946 7.77254
    endloop
  endfacet
  facet normal -0.0274254 0.45382 0.890671
    outer loop
      vertex -3.5864e-016 1.46946 7.77254
      vertex -9 0.695288 7.88988
      vertex -4.21606e-016 0.772542 8.12764
    endloop
  endfacet
  facet normal 1 -0 1.77321e-016
    outer loop
      vertex -4.21606e-016 0.772542 8.12764
      vertex -4.43303e-016 0 8.25
      vertex -4.21606e-016 -0.772542 8.12764
    endloop
  endfacet
  facet normal 1 8.31828e-033 1.77321e-016
    outer loop
      vertex -2.60567e-016 -2.02254 7.21946
      vertex -4.21606e-016 0.772542 8.12764
      vertex -3.5864e-016 -1.46946 7.77254
    endloop
  endfacet
  facet normal 1 0 1.77321e-016
    outer loop
      vertex -3.5864e-016 -1.46946 7.77254
      vertex -4.21606e-016 0.772542 8.12764
      vertex -4.21606e-016 -0.772542 8.12764
    endloop
  endfacet
  facet normal 1 1.80725e-031 1.77321e-016
    outer loop
      vertex -1.36988e-016 -2.37764 6.52254
      vertex -4.21606e-016 0.772542 8.12764
      vertex -2.60567e-016 -2.02254 7.21946
    endloop
  endfacet
  facet normal 1 -1.69404e-032 1.77321e-016
    outer loop
      vertex 0 -2.5 5.75
      vertex -4.21606e-016 0.772542 8.12764
      vertex -1.36988e-016 -2.37764 6.52254
    endloop
  endfacet
  facet normal 1 -0 1.77321e-016
    outer loop
      vertex 0 2.5 5.75
      vertex -4.21606e-016 0.772542 8.12764
      vertex 0 -2.5 5.75
    endloop
  endfacet
  facet normal 1 1.32384e-032 1.77321e-016
    outer loop
      vertex -1.36988e-016 2.37764 6.52254
      vertex -4.21606e-016 0.772542 8.12764
      vertex 0 2.5 5.75
    endloop
  endfacet
  facet normal 1 -4.74176e-031 1.77321e-016
    outer loop
      vertex -2.60567e-016 2.02254 7.21946
      vertex -4.21606e-016 0.772542 8.12764
      vertex -1.36988e-016 2.37764 6.52254
    endloop
  endfacet
  facet normal 1 -5.21075e-032 1.77321e-016
    outer loop
      vertex -3.5864e-016 1.46946 7.77254
      vertex -4.21606e-016 0.772542 8.12764
      vertex -2.60567e-016 2.02254 7.21946
    endloop
  endfacet
  facet normal -1 0 -0
    outer loop
      vertex 0 -3 0
      vertex 0 -3 11.5
      vertex 0 -2.5 5.75
    endloop
  endfacet
  facet normal -1 0 0
    outer loop
      vertex 0 -3 0
      vertex 0 -2.5 5.75
      vertex 0 -2.37764 4.97746
    endloop
  endfacet
  facet normal -1 0 0
    outer loop
      vertex 0 -3 0
      vertex 0 -2.37764 4.97746
      vertex 0 -2.02254 4.28054
    endloop
  endfacet
  facet normal -1 0 0
    outer loop
      vertex 0 -3 0
      vertex 0 -2.02254 4.28054
      vertex 0 -1.46946 3.72746
    endloop
  endfacet
  facet normal -1 -0 0
    outer loop
      vertex 0 -3 0
      vertex 0 -1.46946 3.72746
      vertex 0 3 0
    endloop
  endfacet
  facet normal -1 0 0
    outer loop
      vertex 0 0 3.25
      vertex 0 3 0
      vertex 0 -0.772542 3.37236
    endloop
  endfacet
  facet normal -1 0 0
    outer loop
      vertex 0 -0.772542 3.37236
      vertex 0 3 0
      vertex 0 -1.46946 3.72746
    endloop
  endfacet
  facet normal -1.05376e-017 0 0
    outer loop
      vertex 0 0 3.25
      vertex 0 3.4247e-017 3.25
      vertex 0 3 0
    endloop
  endfacet
  facet normal -1 -0 0
    outer loop
      vertex 0 3.4247e-017 3.25
      vertex 0 0.772542 3.37236
      vertex 0 3 0
    endloop
  endfacet
  facet normal -1 0 0
    outer loop
      vertex 0 3 0
      vertex 0 1.46946 3.72746
      vertex 0 2.02254 4.28054
    endloop
  endfacet
  facet normal -1 0 0
    outer loop
      vertex 0 3 0
      vertex 0 2.02254 4.28054
      vertex 0 2.37764 4.97746
    endloop
  endfacet
  facet normal -1 0 0
    outer loop
      vertex 0 3 0
      vertex 0 2.37764 4.97746
      vertex 0 2.5 5.75
    endloop
  endfacet
  facet normal -1 0 0
    outer loop
      vertex 0 3 0
      vertex 0 2.5 5.75
      vertex 0 3 11.5
    endloop
  endfacet
  facet normal -1 0 -0
    outer loop
      vertex 0 -2.5 5.75
      vertex 0 -3 11.5
      vertex 0 3 11.5
    endloop
  endfacet
  facet normal -1 -0 0
    outer loop
      vertex 0 -2.5 5.75
      vertex 0 3 11.5
      vertex 0 2.5 5.75
    endloop
  endfacet
  facet normal -1 0 0
    outer loop
      vertex 0 1.46946 3.72746
      vertex 0 3 0
      vertex 0 0.772542 3.37236
    endloop
  endfacet
  facet normal -0 -0 -1
    outer loop
      vertex 0 -3 0
      vertex 0 3 0
      vertex 6.87752 -3 0
    endloop
  endfacet
  facet normal 0 0 -1
    outer loop
      vertex 6.87752 -3 0
      vertex 0 3 0
      vertex 6.87752 3 0
    endloop
  endfacet
  facet normal 0 -0 -1
    outer loop
      vertex 6.87752 -3 0
      vertex 6.87752 3 0
      vertex 7.1459 3.52671 0
    endloop
  endfacet
  facet normal 0 0 -1
    outer loop
      vertex 6.87752 -3 0
      vertex 7.1459 3.52671 0
      vertex 8.47329 4.8541 0
    endloop
  endfacet
  facet normal 0 0 -1
    outer loop
      vertex 6.87752 -3 0
      vertex 8.47329 4.8541 0
      vertex 10.1459 5.70634 0
    endloop
  endfacet
  facet normal 0 0 -1
    outer loop
      vertex 6.87752 -3 0
      vertex 10.1459 5.70634 0
      vertex 12 6 0
    endloop
  endfacet
  facet normal 0 0 -1
    outer loop
      vertex 6.87752 -3 0
      vertex 12 6 0
      vertex 13.8541 5.70634 0
    endloop
  endfacet
  facet normal 0 0 -1
    outer loop
      vertex 6.87752 -3 0
      vertex 13.8541 5.70634 0
      vertex 15.5267 4.8541 0
    endloop
  endfacet
  facet normal 0 0 -1
    outer loop
      vertex 6.87752 -3 0
      vertex 15.5267 4.8541 0
      vertex 16.8541 3.52671 0
    endloop
  endfacet
  facet normal 0 0 -1
    outer loop
      vertex 6.87752 -3 0
      vertex 16.8541 3.52671 0
      vertex 17.7063 1.8541 0
    endloop
  endfacet
  facet normal 0 0 -1
    outer loop
      vertex 6.87752 -3 0
      vertex 17.7063 1.8541 0
      vertex 18 0 0
    endloop
  endfacet
  facet normal 0 0 -1
    outer loop
      vertex 6.87752 -3 0
      vertex 18 0 0
      vertex 17.7063 -1.8541 0
    endloop
  endfacet
  facet normal -0 0 -1
    outer loop
      vertex 6.87752 -3 0
      vertex 17.7063 -1.8541 0
      vertex 16.8541 -3.52671 0
    endloop
  endfacet
  facet normal 0 0 -1
    outer loop
      vertex 8.47329 -4.8541 0
      vertex 12 -6 0
      vertex 10.1459 -5.70634 0
    endloop
  endfacet
  facet normal 0 0 -1
    outer loop
      vertex 7.1459 -3.52671 0
      vertex 15.5267 -4.8541 0
      vertex 13.8541 -5.70634 0
    endloop
  endfacet
  facet normal 0 0 -1
    outer loop
      vertex 7.1459 -3.52671 0
      vertex 13.8541 -5.70634 0
      vertex 8.47329 -4.8541 0
    endloop
  endfacet
  facet normal 0 0 -1
    outer loop
      vertex 13.8541 -5.70634 0
      vertex 12 -6 0
      vertex 8.47329 -4.8541 0
    endloop
  endfacet
  facet normal 0 0 -1
    outer loop
      vertex 16.8541 -3.52671 0
      vertex 15.5267 -4.8541 0
      vertex 7.1459 -3.52671 0
    endloop
  endfacet
  facet normal 0 0 -1
    outer loop
      vertex 6.87752 -3 0
      vertex 16.8541 -3.52671 0
      vertex 7.1459 -3.52671 0
    endloop
  endfacet
  facet normal 0 1 0
    outer loop
      vertex 0 3 0
      vertex 0 3 11.5
      vertex 6.87752 3 0
    endloop
  endfacet
  facet normal 0 1 0
    outer loop
      vertex 6.87752 3 0
      vertex 0 3 11.5
      vertex 6.87752 3 11.5
    endloop
  endfacet
  facet normal 0 0 1
    outer loop
      vertex 7.1459 -3.52671 11.5
      vertex 8.47329 -4.8541 11.5
      vertex 6.87752 -3 11.5
    endloop
  endfacet
  facet normal 0 -0 1
    outer loop
      vertex 0 3 11.5
      vertex 0 -3 11.5
      vertex 6.87752 -3 11.5
    endloop
  endfacet
  facet normal 0 0 1
    outer loop
      vertex 10.1459 -5.70634 11.5
      vertex 0 3 11.5
      vertex 6.87752 -3 11.5
    endloop
  endfacet
  facet normal 0 0 1
    outer loop
      vertex 8.47329 -4.8541 11.5
      vertex 10.1459 -5.70634 11.5
      vertex 6.87752 -3 11.5
    endloop
  endfacet
  facet normal 0 0 1
    outer loop
      vertex 10.1459 -5.70634 11.5
      vertex 12 -6 11.5
      vertex 0 3 11.5
    endloop
  endfacet
  facet normal 0 0 1
    outer loop
      vertex 12 -6 11.5
      vertex 13.8541 -5.70634 11.5
      vertex 0 3 11.5
    endloop
  endfacet
  facet normal 0 0 1
    outer loop
      vertex 13.8541 -5.70634 11.5
      vertex 15.5267 -4.8541 11.5
      vertex 0 3 11.5
    endloop
  endfacet
  facet normal 0 0 1
    outer loop
      vertex 15.5267 -4.8541 11.5
      vertex 16.8541 -3.52671 11.5
      vertex 0 3 11.5
    endloop
  endfacet
  facet normal 0 0 1
    outer loop
      vertex 16.8541 -3.52671 11.5
      vertex 17.7063 -1.8541 11.5
      vertex 0 3 11.5
    endloop
  endfacet
  facet normal 0 0 1
    outer loop
      vertex 17.7063 -1.8541 11.5
      vertex 18 0 11.5
      vertex 0 3 11.5
    endloop
  endfacet
  facet normal 0 0 1
    outer loop
      vertex 18 0 11.5
      vertex 17.7063 1.8541 11.5
      vertex 0 3 11.5
    endloop
  endfacet
  facet normal 0 -0 1
    outer loop
      vertex 7.1459 3.52671 11.5
      vertex 6.87752 3 11.5
      vertex 16.8541 3.52671 11.5
    endloop
  endfacet
  facet normal 0 0 1
    outer loop
      vertex 8.47329 4.8541 11.5
      vertex 15.5267 4.8541 11.5
      vertex 13.8541 5.70634 11.5
    endloop
  endfacet
  facet normal -0 0 1
    outer loop
      vertex 13.8541 5.70634 11.5
      vertex 12 6 11.5
      vertex 8.47329 4.8541 11.5
    endloop
  endfacet
  facet normal -0 0 1
    outer loop
      vertex 16.8541 3.52671 11.5
      vertex 15.5267 4.8541 11.5
      vertex 7.1459 3.52671 11.5
    endloop
  endfacet
  facet normal 0 0 1
    outer loop
      vertex 17.7063 1.8541 11.5
      vertex 6.87752 3 11.5
      vertex 0 3 11.5
    endloop
  endfacet
  facet normal 0 0 1
    outer loop
      vertex 17.7063 1.8541 11.5
      vertex 16.8541 3.52671 11.5
      vertex 6.87752 3 11.5
    endloop
  endfacet
  facet normal 0 -0 1
    outer loop
      vertex 10.1459 5.70634 11.5
      vertex 8.47329 4.8541 11.5
      vertex 12 6 11.5
    endloop
  endfacet
  facet normal 0 -0 1
    outer loop
      vertex 8.47329 4.8541 11.5
      vertex 7.1459 3.52671 11.5
      vertex 15.5267 4.8541 11.5
    endloop
  endfacet
  facet normal 0 -1 0
    outer loop
      vertex 0 -3 11.5
      vertex 0 -3 0
      vertex 6.87752 -3 0
    endloop
  endfacet
  facet normal 0 -1 0
    outer loop
      vertex 6.87752 -3 11.5
      vertex 0 -3 11.5
      vertex 6.87752 -3 0
    endloop
  endfacet
  facet normal -0.891007 -0.45399 -0
    outer loop
      vertex 6.87752 -3 0
      vertex 7.1459 -3.52671 0
      vertex 6.87752 -3 11.5
    endloop
  endfacet
  facet normal -0.891007 -0.45399 0
    outer loop
      vertex 6.87752 -3 11.5
      vertex 7.1459 -3.52671 0
      vertex 7.1459 -3.52671 11.5
    endloop
  endfacet
  facet normal -0.707107 -0.707107 0
    outer loop
      vertex 7.1459 -3.52671 11.5
      vertex 7.1459 -3.52671 0
      vertex 8.47329 -4.8541 0
    endloop
  endfacet
  facet normal -0.707107 -0.707107 0
    outer loop
      vertex 8.47329 -4.8541 11.5
      vertex 7.1459 -3.52671 11.5
      vertex 8.47329 -4.8541 0
    endloop
  endfacet
  facet normal -0.45399 -0.891007 0
    outer loop
      vertex 8.47329 -4.8541 11.5
      vertex 8.47329 -4.8541 0
      vertex 10.1459 -5.70634 0
    endloop
  endfacet
  facet normal -0.45399 -0.891007 0
    outer loop
      vertex 10.1459 -5.70634 11.5
      vertex 8.47329 -4.8541 11.5
      vertex 10.1459 -5.70634 0
    endloop
  endfacet
  facet normal -0.156435 -0.987688 0
    outer loop
      vertex 10.1459 -5.70634 11.5
      vertex 10.1459 -5.70634 0
      vertex 12 -6 0
    endloop
  endfacet
  facet normal -0.156435 -0.987688 0
    outer loop
      vertex 12 -6 11.5
      vertex 10.1459 -5.70634 11.5
      vertex 12 -6 0
    endloop
  endfacet
  facet normal 0.156435 -0.987688 0
    outer loop
      vertex 12 -6 11.5
      vertex 12 -6 0
      vertex 13.8541 -5.70634 0
    endloop
  endfacet
  facet normal 0.156435 -0.987688 0
    outer loop
      vertex 13.8541 -5.70634 11.5
      vertex 12 -6 11.5
      vertex 13.8541 -5.70634 0
    endloop
  endfacet
  facet normal 0.45399 -0.891007 0
    outer loop
      vertex 13.8541 -5.70634 11.5
      vertex 13.8541 -5.70634 0
      vertex 15.5267 -4.8541 0
    endloop
  endfacet
  facet normal 0.45399 -0.891007 0
    outer loop
      vertex 15.5267 -4.8541 11.5
      vertex 13.8541 -5.70634 11.5
      vertex 15.5267 -4.8541 0
    endloop
  endfacet
  facet normal 0.707107 -0.707107 0
    outer loop
      vertex 15.5267 -4.8541 11.5
      vertex 15.5267 -4.8541 0
      vertex 16.8541 -3.52671 0
    endloop
  endfacet
  facet normal 0.707107 -0.707107 0
    outer loop
      vertex 16.8541 -3.52671 11.5
      vertex 15.5267 -4.8541 11.5
      vertex 16.8541 -3.52671 0
    endloop
  endfacet
  facet normal 0.891007 -0.45399 0
    outer loop
      vertex 16.8541 -3.52671 11.5
      vertex 16.8541 -3.52671 0
      vertex 17.7063 -1.8541 0
    endloop
  endfacet
  facet normal 0.891007 -0.45399 0
    outer loop
      vertex 17.7063 -1.8541 11.5
      vertex 16.8541 -3.52671 11.5
      vertex 17.7063 -1.8541 0
    endloop
  endfacet
  facet normal 0.987688 -0.156435 0
    outer loop
      vertex 17.7063 -1.8541 11.5
      vertex 17.7063 -1.8541 0
      vertex 18 0 0
    endloop
  endfacet
  facet normal 0.987688 -0.156435 0
    outer loop
      vertex 18 0 11.5
      vertex 17.7063 -1.8541 11.5
      vertex 18 0 0
    endloop
  endfacet
  facet normal 0.987688 0.156435 0
    outer loop
      vertex 18 0 0
      vertex 17.7063 1.8541 0
      vertex 17.7063 1.8541 11.5
    endloop
  endfacet
  facet normal 0.987688 0.156435 -0
    outer loop
      vertex 18 0 11.5
      vertex 18 0 0
      vertex 17.7063 1.8541 11.5
    endloop
  endfacet
  facet normal 0.891007 0.45399 0
    outer loop
      vertex 17.7063 1.8541 0
      vertex 16.8541 3.52671 0
      vertex 16.8541 3.52671 11.5
    endloop
  endfacet
  facet normal 0.891007 0.45399 -0
    outer loop
      vertex 17.7063 1.8541 11.5
      vertex 17.7063 1.8541 0
      vertex 16.8541 3.52671 11.5
    endloop
  endfacet
  facet normal 0.707107 0.707107 0
    outer loop
      vertex 15.5267 4.8541 0
      vertex 15.5267 4.8541 11.5
      vertex 16.8541 3.52671 0
    endloop
  endfacet
  facet normal 0.707107 0.707107 0
    outer loop
      vertex 16.8541 3.52671 0
      vertex 15.5267 4.8541 11.5
      vertex 16.8541 3.52671 11.5
    endloop
  endfacet
  facet normal 0.45399 0.891007 0
    outer loop
      vertex 13.8541 5.70634 0
      vertex 13.8541 5.70634 11.5
      vertex 15.5267 4.8541 0
    endloop
  endfacet
  facet normal 0.45399 0.891007 0
    outer loop
      vertex 15.5267 4.8541 0
      vertex 13.8541 5.70634 11.5
      vertex 15.5267 4.8541 11.5
    endloop
  endfacet
  facet normal 0.156435 0.987688 0
    outer loop
      vertex 12 6 0
      vertex 12 6 11.5
      vertex 13.8541 5.70634 0
    endloop
  endfacet
  facet normal 0.156435 0.987688 0
    outer loop
      vertex 13.8541 5.70634 0
      vertex 12 6 11.5
      vertex 13.8541 5.70634 11.5
    endloop
  endfacet
  facet normal -0.156435 0.987688 0
    outer loop
      vertex 10.1459 5.70634 0
      vertex 10.1459 5.70634 11.5
      vertex 12 6 0
    endloop
  endfacet
  facet normal -0.156435 0.987688 0
    outer loop
      vertex 12 6 0
      vertex 10.1459 5.70634 11.5
      vertex 12 6 11.5
    endloop
  endfacet
  facet normal -0.45399 0.891007 0
    outer loop
      vertex 8.47329 4.8541 0
      vertex 8.47329 4.8541 11.5
      vertex 10.1459 5.70634 0
    endloop
  endfacet
  facet normal -0.45399 0.891007 0
    outer loop
      vertex 10.1459 5.70634 0
      vertex 8.47329 4.8541 11.5
      vertex 10.1459 5.70634 11.5
    endloop
  endfacet
  facet normal -0.707107 0.707107 0
    outer loop
      vertex 7.1459 3.52671 0
      vertex 7.1459 3.52671 11.5
      vertex 8.47329 4.8541 0
    endloop
  endfacet
  facet normal -0.707107 0.707107 0
    outer loop
      vertex 8.47329 4.8541 0
      vertex 7.1459 3.52671 11.5
      vertex 8.47329 4.8541 11.5
    endloop
  endfacet
  facet normal -0.891007 0.45399 0
    outer loop
      vertex 6.87752 3 0
      vertex 6.87752 3 11.5
      vertex 7.1459 3.52671 0
    endloop
  endfacet
  facet normal -0.891007 0.45399 0
    outer loop
      vertex 7.1459 3.52671 0
      vertex 6.87752 3 11.5
      vertex 7.1459 3.52671 11.5
    endloop
  endfacet
endsolid OpenSCAD_Model
