solid OpenSCAD_Model
  facet normal 0.987688 0.156435 0
    outer loop
      vertex 17.5 0 11.5
      vertex 17.2063 1.8541 0
      vertex 17.2063 1.8541 11.5
    endloop
  endfacet
  facet normal 0.987688 0.156435 0
    outer loop
      vertex 17.2063 1.8541 0
      vertex 17.5 0 11.5
      vertex 17.5 0 0
    endloop
  endfacet
  facet normal -0.156435 0.987688 0
    outer loop
      vertex 11.5 6 0
      vertex 9.6459 5.70634 11.5
      vertex 11.5 6 11.5
    endloop
  endfacet
  facet normal -0.156435 0.987688 0
    outer loop
      vertex 9.6459 5.70634 11.5
      vertex 11.5 6 0
      vertex 9.6459 5.70634 0
    endloop
  endfacet
  facet normal 0.156435 -0.987688 0
    outer loop
      vertex 11.5 -6 0
      vertex 13.3541 -5.70634 11.5
      vertex 11.5 -6 11.5
    endloop
  endfacet
  facet normal 0.156435 -0.987688 0
    outer loop
      vertex 13.3541 -5.70634 11.5
      vertex 11.5 -6 0
      vertex 13.3541 -5.70634 0
    endloop
  endfacet
  facet normal 0.453991 -0.891006 0
    outer loop
      vertex 13.3541 -5.70634 0
      vertex 15.0267 -4.8541 11.5
      vertex 13.3541 -5.70634 11.5
    endloop
  endfacet
  facet normal 0.453991 -0.891006 0
    outer loop
      vertex 15.0267 -4.8541 11.5
      vertex 13.3541 -5.70634 0
      vertex 15.0267 -4.8541 0
    endloop
  endfacet
  facet normal 0.453991 0.891006 -0
    outer loop
      vertex 15.0267 4.8541 0
      vertex 13.3541 5.70634 11.5
      vertex 15.0267 4.8541 11.5
    endloop
  endfacet
  facet normal 0.453991 0.891006 0
    outer loop
      vertex 13.3541 5.70634 11.5
      vertex 15.0267 4.8541 0
      vertex 13.3541 5.70634 0
    endloop
  endfacet
  facet normal 0.891006 0.453991 0
    outer loop
      vertex 17.2063 1.8541 11.5
      vertex 16.3541 3.52671 0
      vertex 16.3541 3.52671 11.5
    endloop
  endfacet
  facet normal 0.891006 0.453991 0
    outer loop
      vertex 16.3541 3.52671 0
      vertex 17.2063 1.8541 11.5
      vertex 17.2063 1.8541 0
    endloop
  endfacet
  facet normal 0.156435 0.987688 -0
    outer loop
      vertex 13.3541 5.70634 0
      vertex 11.5 6 11.5
      vertex 13.3541 5.70634 11.5
    endloop
  endfacet
  facet normal 0.156435 0.987688 0
    outer loop
      vertex 11.5 6 11.5
      vertex 13.3541 5.70634 0
      vertex 11.5 6 0
    endloop
  endfacet
  facet normal -0.707107 0.707107 0
    outer loop
      vertex 6.6459 3.52671 0
      vertex 7.97329 4.8541 11.5
      vertex 7.97329 4.8541 0
    endloop
  endfacet
  facet normal -0.707107 0.707107 0
    outer loop
      vertex 7.97329 4.8541 11.5
      vertex 6.6459 3.52671 0
      vertex 6.6459 3.52671 11.5
    endloop
  endfacet
  facet normal -0.891006 0.453991 0
    outer loop
      vertex 6.37752 3 0
      vertex 6.6459 3.52671 11.5
      vertex 6.6459 3.52671 0
    endloop
  endfacet
  facet normal -0.891006 0.453991 0
    outer loop
      vertex 6.6459 3.52671 11.5
      vertex 6.37752 3 0
      vertex 6.37752 3 11.5
    endloop
  endfacet
  facet normal -0.453991 0.891006 0
    outer loop
      vertex 9.6459 5.70634 0
      vertex 7.97329 4.8541 11.5
      vertex 9.6459 5.70634 11.5
    endloop
  endfacet
  facet normal -0.453991 0.891006 0
    outer loop
      vertex 7.97329 4.8541 11.5
      vertex 9.6459 5.70634 0
      vertex 7.97329 4.8541 0
    endloop
  endfacet
  facet normal 0.891006 -0.453991 0
    outer loop
      vertex 16.3541 -3.52671 11.5
      vertex 17.2063 -1.8541 0
      vertex 17.2063 -1.8541 11.5
    endloop
  endfacet
  facet normal 0.891006 -0.453991 0
    outer loop
      vertex 17.2063 -1.8541 0
      vertex 16.3541 -3.52671 11.5
      vertex 16.3541 -3.52671 0
    endloop
  endfacet
  facet normal 0.707107 0.707107 0
    outer loop
      vertex 16.3541 3.52671 11.5
      vertex 15.0267 4.8541 0
      vertex 15.0267 4.8541 11.5
    endloop
  endfacet
  facet normal 0.707107 0.707107 0
    outer loop
      vertex 15.0267 4.8541 0
      vertex 16.3541 3.52671 11.5
      vertex 16.3541 3.52671 0
    endloop
  endfacet
  facet normal 0 0 -1
    outer loop
      vertex 17.2063 -1.8541 0
      vertex 17.2063 1.8541 0
      vertex 17.5 0 0
    endloop
  endfacet
  facet normal 0 0 -1
    outer loop
      vertex 16.3541 -3.52671 0
      vertex 17.2063 1.8541 0
      vertex 17.2063 -1.8541 0
    endloop
  endfacet
  facet normal 0 0 -1
    outer loop
      vertex 16.3541 -3.52671 0
      vertex 16.3541 3.52671 0
      vertex 17.2063 1.8541 0
    endloop
  endfacet
  facet normal 0 0 -1
    outer loop
      vertex 15.0267 -4.8541 0
      vertex 16.3541 3.52671 0
      vertex 16.3541 -3.52671 0
    endloop
  endfacet
  facet normal 0 0 -1
    outer loop
      vertex 15.0267 -4.8541 0
      vertex 15.0267 4.8541 0
      vertex 16.3541 3.52671 0
    endloop
  endfacet
  facet normal 0 0 -1
    outer loop
      vertex 13.3541 -5.70634 0
      vertex 15.0267 4.8541 0
      vertex 15.0267 -4.8541 0
    endloop
  endfacet
  facet normal 0 0 -1
    outer loop
      vertex 13.3541 -5.70634 0
      vertex 13.3541 5.70634 0
      vertex 15.0267 4.8541 0
    endloop
  endfacet
  facet normal 0 0 -1
    outer loop
      vertex 13.3541 -5.70634 0
      vertex 11.5 6 0
      vertex 13.3541 5.70634 0
    endloop
  endfacet
  facet normal 0 0 -1
    outer loop
      vertex 6.37752 -3 0
      vertex 13.3541 -5.70634 0
      vertex 11.5 -6 0
    endloop
  endfacet
  facet normal 0 0 -1
    outer loop
      vertex 6.37752 -3 0
      vertex 11.5 -6 0
      vertex 9.6459 -5.70634 0
    endloop
  endfacet
  facet normal 0 0 -1
    outer loop
      vertex 13.3541 -5.70634 0
      vertex 6.37752 -3 0
      vertex 11.5 6 0
    endloop
  endfacet
  facet normal 0 0 -1
    outer loop
      vertex 6.37752 -3 0
      vertex 9.6459 -5.70634 0
      vertex 7.97329 -4.8541 0
    endloop
  endfacet
  facet normal 0 0 -1
    outer loop
      vertex 6.37752 3 0
      vertex 11.5 6 0
      vertex 6.37752 -3 0
    endloop
  endfacet
  facet normal 0 0 -1
    outer loop
      vertex 6.37752 -3 0
      vertex 7.97329 -4.8541 0
      vertex 6.6459 -3.52671 0
    endloop
  endfacet
  facet normal 0 0 -1
    outer loop
      vertex 11.5 6 0
      vertex 6.37752 3 0
      vertex 9.6459 5.70634 0
    endloop
  endfacet
  facet normal 0 0 -1
    outer loop
      vertex 9.6459 5.70634 0
      vertex 6.37752 3 0
      vertex 7.97329 4.8541 0
    endloop
  endfacet
  facet normal 0 0 -1
    outer loop
      vertex 7.97329 4.8541 0
      vertex 6.37752 3 0
      vertex 6.6459 3.52671 0
    endloop
  endfacet
  facet normal 0 0 -1
    outer loop
      vertex 0 -3 0
      vertex 6.37752 3 0
      vertex 6.37752 -3 0
    endloop
  endfacet
  facet normal -0 0 -1
    outer loop
      vertex 6.37752 3 0
      vertex 0 -3 0
      vertex 0 3 0
    endloop
  endfacet
  facet normal 0 0 1
    outer loop
      vertex 17.2063 1.8541 11.5
      vertex 17.2063 -1.8541 11.5
      vertex 17.5 0 11.5
    endloop
  endfacet
  facet normal 0 0 1
    outer loop
      vertex 16.3541 3.52671 11.5
      vertex 17.2063 -1.8541 11.5
      vertex 17.2063 1.8541 11.5
    endloop
  endfacet
  facet normal 0 0 1
    outer loop
      vertex 16.3541 3.52671 11.5
      vertex 16.3541 -3.52671 11.5
      vertex 17.2063 -1.8541 11.5
    endloop
  endfacet
  facet normal 0 0 1
    outer loop
      vertex 15.0267 4.8541 11.5
      vertex 16.3541 -3.52671 11.5
      vertex 16.3541 3.52671 11.5
    endloop
  endfacet
  facet normal 0 0 1
    outer loop
      vertex 15.0267 4.8541 11.5
      vertex 15.0267 -4.8541 11.5
      vertex 16.3541 -3.52671 11.5
    endloop
  endfacet
  facet normal 0 0 1
    outer loop
      vertex 13.3541 5.70634 11.5
      vertex 15.0267 -4.8541 11.5
      vertex 15.0267 4.8541 11.5
    endloop
  endfacet
  facet normal 0 0 1
    outer loop
      vertex 13.3541 5.70634 11.5
      vertex 13.3541 -5.70634 11.5
      vertex 15.0267 -4.8541 11.5
    endloop
  endfacet
  facet normal 0 0 1
    outer loop
      vertex 6.37752 3 11.5
      vertex 13.3541 5.70634 11.5
      vertex 11.5 6 11.5
    endloop
  endfacet
  facet normal 0 0 1
    outer loop
      vertex 13.3541 5.70634 11.5
      vertex 6.37752 3 11.5
      vertex 13.3541 -5.70634 11.5
    endloop
  endfacet
  facet normal 0 0 1
    outer loop
      vertex 6.37752 3 11.5
      vertex 11.5 6 11.5
      vertex 9.6459 5.70634 11.5
    endloop
  endfacet
  facet normal -0 0 1
    outer loop
      vertex 6.37752 -3 11.5
      vertex 13.3541 -5.70634 11.5
      vertex 6.37752 3 11.5
    endloop
  endfacet
  facet normal 0 0 1
    outer loop
      vertex 6.37752 3 11.5
      vertex 9.6459 5.70634 11.5
      vertex 7.97329 4.8541 11.5
    endloop
  endfacet
  facet normal 0 0 1
    outer loop
      vertex 13.3541 -5.70634 11.5
      vertex 6.37752 -3 11.5
      vertex 11.5 -6 11.5
    endloop
  endfacet
  facet normal 0 0 1
    outer loop
      vertex 6.37752 3 11.5
      vertex 7.97329 4.8541 11.5
      vertex 6.6459 3.52671 11.5
    endloop
  endfacet
  facet normal 0 0 1
    outer loop
      vertex 11.5 -6 11.5
      vertex 6.37752 -3 11.5
      vertex 9.6459 -5.70634 11.5
    endloop
  endfacet
  facet normal 0 0 1
    outer loop
      vertex 9.6459 -5.70634 11.5
      vertex 6.37752 -3 11.5
      vertex 7.97329 -4.8541 11.5
    endloop
  endfacet
  facet normal 0 0 1
    outer loop
      vertex 7.97329 -4.8541 11.5
      vertex 6.37752 -3 11.5
      vertex 6.6459 -3.52671 11.5
    endloop
  endfacet
  facet normal -0 0 1
    outer loop
      vertex 0 3 11.5
      vertex 6.37752 -3 11.5
      vertex 6.37752 3 11.5
    endloop
  endfacet
  facet normal 0 0 1
    outer loop
      vertex 6.37752 -3 11.5
      vertex 0 3 11.5
      vertex 0 -3 11.5
    endloop
  endfacet
  facet normal 0.707107 -0.707107 0
    outer loop
      vertex 15.0267 -4.8541 11.5
      vertex 16.3541 -3.52671 0
      vertex 16.3541 -3.52671 11.5
    endloop
  endfacet
  facet normal 0.707107 -0.707107 0
    outer loop
      vertex 16.3541 -3.52671 0
      vertex 15.0267 -4.8541 11.5
      vertex 15.0267 -4.8541 0
    endloop
  endfacet
  facet normal 0.987688 -0.156435 0
    outer loop
      vertex 17.2063 -1.8541 11.5
      vertex 17.5 0 0
      vertex 17.5 0 11.5
    endloop
  endfacet
  facet normal 0.987688 -0.156435 0
    outer loop
      vertex 17.5 0 0
      vertex 17.2063 -1.8541 11.5
      vertex 17.2063 -1.8541 0
    endloop
  endfacet
  facet normal -0.156435 -0.987688 0
    outer loop
      vertex 9.6459 -5.70634 0
      vertex 11.5 -6 11.5
      vertex 9.6459 -5.70634 11.5
    endloop
  endfacet
  facet normal -0.156435 -0.987688 -0
    outer loop
      vertex 11.5 -6 11.5
      vertex 9.6459 -5.70634 0
      vertex 11.5 -6 0
    endloop
  endfacet
  facet normal -0.707107 -0.707107 0
    outer loop
      vertex 7.97329 -4.8541 0
      vertex 6.6459 -3.52671 11.5
      vertex 6.6459 -3.52671 0
    endloop
  endfacet
  facet normal -0.707107 -0.707107 0
    outer loop
      vertex 6.6459 -3.52671 11.5
      vertex 7.97329 -4.8541 0
      vertex 7.97329 -4.8541 11.5
    endloop
  endfacet
  facet normal -0.891006 -0.453991 0
    outer loop
      vertex 6.6459 -3.52671 0
      vertex 6.37752 -3 11.5
      vertex 6.37752 -3 0
    endloop
  endfacet
  facet normal -0.891006 -0.453991 0
    outer loop
      vertex 6.37752 -3 11.5
      vertex 6.6459 -3.52671 0
      vertex 6.6459 -3.52671 11.5
    endloop
  endfacet
  facet normal -0.453991 -0.891006 0
    outer loop
      vertex 7.97329 -4.8541 0
      vertex 9.6459 -5.70634 11.5
      vertex 7.97329 -4.8541 11.5
    endloop
  endfacet
  facet normal -0.453991 -0.891006 -0
    outer loop
      vertex 9.6459 -5.70634 11.5
      vertex 7.97329 -4.8541 0
      vertex 9.6459 -5.70634 0
    endloop
  endfacet
  facet normal -1 0 0
    outer loop
      vertex 0 3 0
      vertex 0 2.5 5.75
      vertex 0 3 11.5
    endloop
  endfacet
  facet normal -1 0 0
    outer loop
      vertex 0 3 0
      vertex 0 2.37764 4.97746
      vertex 0 2.5 5.75
    endloop
  endfacet
  facet normal -1 0 0
    outer loop
      vertex 0 3 0
      vertex 0 2.02254 4.28054
      vertex 0 2.37764 4.97746
    endloop
  endfacet
  facet normal -1 0 0
    outer loop
      vertex 0 3 0
      vertex 0 1.46946 3.72746
      vertex 0 2.02254 4.28054
    endloop
  endfacet
  facet normal -1 0 0
    outer loop
      vertex 0 3 0
      vertex 0 0.772542 3.37236
      vertex 0 1.46946 3.72746
    endloop
  endfacet
  facet normal -1 0 0
    outer loop
      vertex 0 3 0
      vertex 0 0 3.25
      vertex 0 0.772542 3.37236
    endloop
  endfacet
  facet normal -1 0 0
    outer loop
      vertex 0 -3 0
      vertex 0 0 3.25
      vertex 0 3 0
    endloop
  endfacet
  facet normal -1 -0 0
    outer loop
      vertex 0 0 3.25
      vertex 0 -3 0
      vertex 0 -0.772542 3.37236
    endloop
  endfacet
  facet normal -1 -0 0
    outer loop
      vertex 0 -2.37764 4.97746
      vertex 0 -3 0
      vertex 0 -2.5 5.75
    endloop
  endfacet
  facet normal -1 -0 0
    outer loop
      vertex 0 -2.02254 4.28054
      vertex 0 -3 0
      vertex 0 -2.37764 4.97746
    endloop
  endfacet
  facet normal -1 -0 0
    outer loop
      vertex 0 -1.46946 3.72746
      vertex 0 -3 0
      vertex 0 -2.02254 4.28054
    endloop
  endfacet
  facet normal -1 -0 0
    outer loop
      vertex 0 -0.772542 3.37236
      vertex 0 -3 0
      vertex 0 -1.46946 3.72746
    endloop
  endfacet
  facet normal -1 0 0
    outer loop
      vertex 0 2.37764 6.52254
      vertex 0 3 11.5
      vertex 0 2.5 5.75
    endloop
  endfacet
  facet normal -1 0 0
    outer loop
      vertex 0 2.02254 7.21946
      vertex 0 3 11.5
      vertex 0 2.37764 6.52254
    endloop
  endfacet
  facet normal -1 0 0
    outer loop
      vertex 0 1.46946 7.77254
      vertex 0 3 11.5
      vertex 0 2.02254 7.21946
    endloop
  endfacet
  facet normal -1 0 0
    outer loop
      vertex 0 0.772542 8.12764
      vertex 0 3 11.5
      vertex 0 1.46946 7.77254
    endloop
  endfacet
  facet normal -1 0 0
    outer loop
      vertex 0 0 8.25
      vertex 0 3 11.5
      vertex 0 0.772542 8.12764
    endloop
  endfacet
  facet normal -1 0 0
    outer loop
      vertex 0 -3 11.5
      vertex 0 0 8.25
      vertex 0 -0.772542 8.12764
    endloop
  endfacet
  facet normal -1 0 0
    outer loop
      vertex 0 -3 11.5
      vertex 0 -0.772542 8.12764
      vertex 0 -1.46946 7.77254
    endloop
  endfacet
  facet normal -1 0 0
    outer loop
      vertex 0 0 8.25
      vertex 0 -3 11.5
      vertex 0 3 11.5
    endloop
  endfacet
  facet normal -1 0 0
    outer loop
      vertex 0 -2.02254 7.21946
      vertex 0 -3 11.5
      vertex 0 -1.46946 7.77254
    endloop
  endfacet
  facet normal -1 0 0
    outer loop
      vertex 0 -2.37764 6.52254
      vertex 0 -3 11.5
      vertex 0 -2.02254 7.21946
    endloop
  endfacet
  facet normal -1 0 0
    outer loop
      vertex 0 -2.5 5.75
      vertex 0 -3 11.5
      vertex 0 -2.37764 6.52254
    endloop
  endfacet
  facet normal -1 0 0
    outer loop
      vertex 0 -3 11.5
      vertex 0 -2.5 5.75
      vertex 0 -3 0
    endloop
  endfacet
  facet normal 0 -1 0
    outer loop
      vertex 0 -3 0
      vertex 6.37752 -3 11.5
      vertex 0 -3 11.5
    endloop
  endfacet
  facet normal 0 -1 -0
    outer loop
      vertex 6.37752 -3 11.5
      vertex 0 -3 0
      vertex 6.37752 -3 0
    endloop
  endfacet
  facet normal 0 1 -0
    outer loop
      vertex 6.37752 3 0
      vertex 0 3 11.5
      vertex 6.37752 3 11.5
    endloop
  endfacet
  facet normal 0 1 0
    outer loop
      vertex 0 3 11.5
      vertex 6.37752 3 0
      vertex 0 3 0
    endloop
  endfacet
  facet normal -0.0274255 -0.156376 0.987317
    outer loop
      vertex 0 0 8.25
      vertex -9 0 8
      vertex 0 -0.772542 8.12764
    endloop
  endfacet
  facet normal -0.0274255 0.156375 -0.987317
    outer loop
      vertex 0 0 3.25
      vertex -9 0 3.5
      vertex 0 0.772542 3.37236
    endloop
  endfacet
  facet normal -0.0274255 0.156376 -0.987317
    outer loop
      vertex 0 0.772542 3.37236
      vertex -9 0 3.5
      vertex -9 0.695288 3.61012
    endloop
  endfacet
  facet normal -0.0274255 -0.45382 -0.890671
    outer loop
      vertex 0 -1.46946 3.72746
      vertex -9 -1.32252 3.92971
      vertex 0 -0.772542 3.37236
    endloop
  endfacet
  facet normal -0.0274255 -0.45382 0.890671
    outer loop
      vertex 0 -0.772542 8.12764
      vertex -9 -1.32252 7.57029
      vertex 0 -1.46946 7.77254
    endloop
  endfacet
  facet normal -0.0274255 -0.987317 -0.156376
    outer loop
      vertex 0 -2.5 5.75
      vertex -9 -2.25 5.75
      vertex 0 -2.37764 4.97746
    endloop
  endfacet
  facet normal -0.0274255 -0.156375 -0.987317
    outer loop
      vertex 0 -0.772542 3.37236
      vertex -9 0 3.5
      vertex 0 0 3.25
    endloop
  endfacet
  facet normal -0.0274255 -0.987317 -0.156377
    outer loop
      vertex 0 -2.37764 4.97746
      vertex -9 -2.25 5.75
      vertex -9 -2.13988 5.05471
    endloop
  endfacet
  facet normal -0.0274255 -0.453819 0.890672
    outer loop
      vertex -9 -0.695288 7.88988
      vertex -9 -1.32252 7.57029
      vertex 0 -0.772542 8.12764
    endloop
  endfacet
  facet normal -0.0274255 -0.890671 0.45382
    outer loop
      vertex 0 -2.02254 7.21946
      vertex -9 -1.82029 7.07252
      vertex 0 -2.37764 6.52254
    endloop
  endfacet
  facet normal -0.0274255 0.987317 -0.156376
    outer loop
      vertex 0 2.37764 4.97746
      vertex -9 2.25 5.75
      vertex 0 2.5 5.75
    endloop
  endfacet
  facet normal -0.0274254 -0.706841 -0.706841
    outer loop
      vertex -9 -1.32252 3.92971
      vertex 0 -2.02254 4.28054
      vertex -9 -1.82029 4.42748
    endloop
  endfacet
  facet normal -0.0274254 -0.706841 -0.706841
    outer loop
      vertex 0 -2.02254 4.28054
      vertex -9 -1.32252 3.92971
      vertex 0 -1.46946 3.72746
    endloop
  endfacet
  facet normal -0.0274255 -0.890671 -0.45382
    outer loop
      vertex 0 -2.37764 4.97746
      vertex -9 -1.82029 4.42748
      vertex 0 -2.02254 4.28054
    endloop
  endfacet
  facet normal -0.0274255 -0.156377 0.987317
    outer loop
      vertex -9 0 8
      vertex -9 -0.695288 7.88988
      vertex 0 -0.772542 8.12764
    endloop
  endfacet
  facet normal -0.0274255 0.890671 -0.45382
    outer loop
      vertex 0 2.02254 4.28054
      vertex -9 1.82029 4.42748
      vertex 0 2.37764 4.97746
    endloop
  endfacet
  facet normal -0.0274255 0.890671 0.45382
    outer loop
      vertex 0 2.37764 6.52254
      vertex -9 1.82029 7.07252
      vertex 0 2.02254 7.21946
    endloop
  endfacet
  facet normal -0.0274255 0.987317 0.156376
    outer loop
      vertex 0 2.5 5.75
      vertex -9 2.25 5.75
      vertex 0 2.37764 6.52254
    endloop
  endfacet
  facet normal -0.0274255 -0.156376 -0.987317
    outer loop
      vertex 0 -0.772542 3.37236
      vertex -9 -0.695288 3.61012
      vertex -9 0 3.5
    endloop
  endfacet
  facet normal -0.0274255 -0.453819 -0.890672
    outer loop
      vertex 0 -0.772542 3.37236
      vertex -9 -1.32252 3.92971
      vertex -9 -0.695288 3.61012
    endloop
  endfacet
  facet normal -1 0 0
    outer loop
      vertex -9 2.13988 5.05471
      vertex -9 2.13988 6.44529
      vertex -9 2.25 5.75
    endloop
  endfacet
  facet normal -1 0 0
    outer loop
      vertex -9 1.82029 4.42748
      vertex -9 2.13988 6.44529
      vertex -9 2.13988 5.05471
    endloop
  endfacet
  facet normal -1 0 0
    outer loop
      vertex -9 1.82029 4.42748
      vertex -9 1.82029 7.07252
      vertex -9 2.13988 6.44529
    endloop
  endfacet
  facet normal -1 0 0
    outer loop
      vertex -9 1.32252 3.92971
      vertex -9 1.82029 7.07252
      vertex -9 1.82029 4.42748
    endloop
  endfacet
  facet normal -1 0 0
    outer loop
      vertex -9 1.32252 3.92971
      vertex -9 1.32252 7.57029
      vertex -9 1.82029 7.07252
    endloop
  endfacet
  facet normal -1 0 0
    outer loop
      vertex -9 0.695288 3.61012
      vertex -9 1.32252 7.57029
      vertex -9 1.32252 3.92971
    endloop
  endfacet
  facet normal -1 0 0
    outer loop
      vertex -9 0.695288 3.61012
      vertex -9 0.695288 7.88988
      vertex -9 1.32252 7.57029
    endloop
  endfacet
  facet normal -1 0 0
    outer loop
      vertex -9 0 3.5
      vertex -9 0.695288 7.88988
      vertex -9 0.695288 3.61012
    endloop
  endfacet
  facet normal -1 0 0
    outer loop
      vertex -9 0 3.5
      vertex -9 0 8
      vertex -9 0.695288 7.88988
    endloop
  endfacet
  facet normal -1 0 0
    outer loop
      vertex -9 -0.695288 3.61012
      vertex -9 0 8
      vertex -9 0 3.5
    endloop
  endfacet
  facet normal -1 0 0
    outer loop
      vertex -9 -0.695288 3.61012
      vertex -9 -0.695288 7.88988
      vertex -9 0 8
    endloop
  endfacet
  facet normal -1 0 0
    outer loop
      vertex -9 -1.32252 3.92971
      vertex -9 -0.695288 7.88988
      vertex -9 -0.695288 3.61012
    endloop
  endfacet
  facet normal -1 0 0
    outer loop
      vertex -9 -1.32252 3.92971
      vertex -9 -1.32252 7.57029
      vertex -9 -0.695288 7.88988
    endloop
  endfacet
  facet normal -1 0 0
    outer loop
      vertex -9 -1.82029 4.42748
      vertex -9 -1.32252 7.57029
      vertex -9 -1.32252 3.92971
    endloop
  endfacet
  facet normal -1 0 0
    outer loop
      vertex -9 -1.82029 4.42748
      vertex -9 -1.82029 7.07252
      vertex -9 -1.32252 7.57029
    endloop
  endfacet
  facet normal -1 0 0
    outer loop
      vertex -9 -2.13988 5.05471
      vertex -9 -1.82029 7.07252
      vertex -9 -1.82029 4.42748
    endloop
  endfacet
  facet normal -1 0 0
    outer loop
      vertex -9 -2.13988 5.05471
      vertex -9 -2.13988 6.44529
      vertex -9 -1.82029 7.07252
    endloop
  endfacet
  facet normal -1 0 -0
    outer loop
      vertex -9 -2.13988 6.44529
      vertex -9 -2.13988 5.05471
      vertex -9 -2.25 5.75
    endloop
  endfacet
  facet normal -0.0274255 -0.890672 -0.453819
    outer loop
      vertex 0 -2.37764 4.97746
      vertex -9 -2.13988 5.05471
      vertex -9 -1.82029 4.42748
    endloop
  endfacet
  facet normal -0.0274254 -0.706841 0.706841
    outer loop
      vertex -9 -1.32252 7.57029
      vertex 0 -2.02254 7.21946
      vertex 0 -1.46946 7.77254
    endloop
  endfacet
  facet normal -0.0274254 -0.706841 0.706841
    outer loop
      vertex 0 -2.02254 7.21946
      vertex -9 -1.32252 7.57029
      vertex -9 -1.82029 7.07252
    endloop
  endfacet
  facet normal -0.0274255 -0.987317 0.156376
    outer loop
      vertex 0 -2.37764 6.52254
      vertex -9 -2.25 5.75
      vertex 0 -2.5 5.75
    endloop
  endfacet
  facet normal -0.0274255 0.987317 -0.156377
    outer loop
      vertex 0 2.37764 4.97746
      vertex -9 2.13988 5.05471
      vertex -9 2.25 5.75
    endloop
  endfacet
  facet normal -0.0274255 0.45382 -0.890671
    outer loop
      vertex 0 0.772542 3.37236
      vertex -9 1.32252 3.92971
      vertex 0 1.46946 3.72746
    endloop
  endfacet
  facet normal -0.0274255 0.45382 0.890671
    outer loop
      vertex 0 1.46946 7.77254
      vertex -9 1.32252 7.57029
      vertex 0 0.772542 8.12764
    endloop
  endfacet
  facet normal -0.0274255 0.890672 0.453819
    outer loop
      vertex -9 2.13988 6.44529
      vertex -9 1.82029 7.07252
      vertex 0 2.37764 6.52254
    endloop
  endfacet
  facet normal -0.0274255 0.987317 0.156377
    outer loop
      vertex -9 2.25 5.75
      vertex -9 2.13988 6.44529
      vertex 0 2.37764 6.52254
    endloop
  endfacet
  facet normal -0.0274255 -0.987317 0.156377
    outer loop
      vertex -9 -2.13988 6.44529
      vertex -9 -2.25 5.75
      vertex 0 -2.37764 6.52254
    endloop
  endfacet
  facet normal -0.0274255 -0.890672 0.453819
    outer loop
      vertex -9 -1.82029 7.07252
      vertex -9 -2.13988 6.44529
      vertex 0 -2.37764 6.52254
    endloop
  endfacet
  facet normal -0.0274255 0.453819 -0.890672
    outer loop
      vertex 0 0.772542 3.37236
      vertex -9 0.695288 3.61012
      vertex -9 1.32252 3.92971
    endloop
  endfacet
  facet normal -0.0274254 0.706841 -0.706841
    outer loop
      vertex 0 2.02254 4.28054
      vertex -9 1.32252 3.92971
      vertex -9 1.82029 4.42748
    endloop
  endfacet
  facet normal -0.0274254 0.706841 -0.706841
    outer loop
      vertex -9 1.32252 3.92971
      vertex 0 2.02254 4.28054
      vertex 0 1.46946 3.72746
    endloop
  endfacet
  facet normal -0.0274254 0.706841 0.706841
    outer loop
      vertex 0 2.02254 7.21946
      vertex -9 1.32252 7.57029
      vertex 0 1.46946 7.77254
    endloop
  endfacet
  facet normal -0.0274254 0.706841 0.706841
    outer loop
      vertex -9 1.32252 7.57029
      vertex 0 2.02254 7.21946
      vertex -9 1.82029 7.07252
    endloop
  endfacet
  facet normal -0.0274255 0.156376 0.987317
    outer loop
      vertex 0 0.772542 8.12764
      vertex -9 0 8
      vertex 0 0 8.25
    endloop
  endfacet
  facet normal -0.0274255 0.890672 -0.453819
    outer loop
      vertex 0 2.37764 4.97746
      vertex -9 1.82029 4.42748
      vertex -9 2.13988 5.05471
    endloop
  endfacet
  facet normal -0.0274255 0.156377 0.987317
    outer loop
      vertex -9 0.695288 7.88988
      vertex -9 0 8
      vertex 0 0.772542 8.12764
    endloop
  endfacet
  facet normal -0.0274255 0.453819 0.890672
    outer loop
      vertex -9 1.32252 7.57029
      vertex -9 0.695288 7.88988
      vertex 0 0.772542 8.12764
    endloop
  endfacet
endsolid OpenSCAD_Model
